<?xml version="1.0" encoding="utf-8"?>
<!-- Generator: Adobe Illustrator 24.1.2, SVG Export Plug-In . SVG Version: 6.00 Build 0)  -->
<svg version="1.1" id="master-artboard" xmlns="http://www.w3.org/2000/svg" xmlns:xlink="http://www.w3.org/1999/xlink" x="0px"
	 y="0px" viewBox="0 0 2800 2040" style="enable-background:new 0 0 2800 2040;" xml:space="preserve">
<style type="text/css">
	.st0{fill-rule:evenodd;clip-rule:evenodd;fill:#484848;}
	.st1{fill-rule:evenodd;clip-rule:evenodd;fill:#FFFFFF;}
	.st2{opacity:0.36;fill-rule:evenodd;clip-rule:evenodd;fill:url(#SVGID_1_);}
	.st3{fill:#12D619;}
	.st4{fill:#01AE07;}
</style>
<path class="st0" d="M1399.1,1781.5c418.6,0,758.8-341.6,758.8-760.2s-340.1-760.2-758.8-760.2c-418.6,0-760.2,341.6-760.2,760.2
	C638.8,1439.9,980.4,1781.5,1399.1,1781.5L1399.1,1781.5z"/>
<path class="st1" d="M1399.2,1747.3c398.5,0,724.3-325.8,724.3-726s-325.8-726-724.3-726c-400.2,0-726,325.8-726,726
	C673.2,1421.5,998.9,1747.3,1399.2,1747.3L1399.2,1747.3z"/>
<linearGradient id="SVGID_1_" gradientUnits="userSpaceOnUse" x1="673.2" y1="1021.3" x2="2123.5" y2="1021.3" gradientTransform="matrix(0.5578 0.83 -0.83 0.5578 1466.088 -708.9739)">
	<stop  offset="0" style="stop-color:#FFFFFF;stop-opacity:0"/>
	<stop  offset="0.1612" style="stop-color:#FCFEFC;stop-opacity:0.1612"/>
	<stop  offset="0.295" style="stop-color:#F1FDF2;stop-opacity:0.295"/>
	<stop  offset="0.419" style="stop-color:#E0FAE1;stop-opacity:0.419"/>
	<stop  offset="0.5371" style="stop-color:#C8F5C9;stop-opacity:0.5371"/>
	<stop  offset="0.651" style="stop-color:#A8F0AB;stop-opacity:0.651"/>
	<stop  offset="0.7618" style="stop-color:#82E985;stop-opacity:0.7618"/>
	<stop  offset="0.8701" style="stop-color:#54E159;stop-opacity:0.8701"/>
	<stop  offset="0.9739" style="stop-color:#20D827;stop-opacity:0.9739"/>
	<stop  offset="1" style="stop-color:#12D619"/>
</linearGradient>
<path class="st2" d="M796.2,1426.9c222.3,330.8,674.4,419.5,1006.6,196.2s420.9-675.3,198.6-1006.1
	c-223.2-332.2-675.3-420.9-1007.5-197.6S573,1094.7,796.2,1426.9L796.2,1426.9z"/>
<path class="st3" d="M1367.1,1375.9c-26.1,0-53.8-2.9-82.8-7.3c-29.1-4.4-56.7-10.2-81.4-20.3c-24.7-8.7-45.1-20.4-62.5-33.5
	c-16-13.1-24.7-29.1-24.7-48c0-8.7,1.4-16,5.8-24.7c2.9-8.7,7.3-16,14.5-23.3c7.3-7.3,16-13.1,27.6-17.5c10.2-4.4,23.3-7.3,37.8-7.3
	c13.1,0,26.1,1.5,37.8,5.8c11.6,2.9,23.2,7.3,36.3,10.2c13.1,4.4,27.6,8.7,42.2,13.1c14.5,4.4,30.5,7.3,49.4,7.3v-170.1
	c-29-8.7-58.1-18.9-88.7-29.1c-30.5-10.2-56.7-23.3-79.9-40.7c-24.7-16-43.6-36.3-58.1-61c-16-24.7-23.3-56.7-23.3-94.5
	c0-65.4,21.8-116.3,66.9-154.1c45.1-37.8,106.1-58.1,183.1-62.5v-56.7c0-8.7,2.9-16,10.2-21.8c5.8-4.4,13.1-7.3,21.8-7.3
	c8.7,0,16,2.9,23.2,7.3c5.8,5.8,8.7,13.1,8.7,21.8v56.7c21.8,1.5,43.6,4.4,68.4,7.3c26.1,4.4,47.9,10.2,69.8,17.5
	c21.8,8.7,40.7,18.9,55.2,30.5c14.5,13.1,21.8,29.1,21.8,47.9c0,20.4-8.7,36.4-24.7,50.9c-16,13.1-34.9,20.4-59.6,20.4
	c-11.7,0-21.8-1.5-30.5-4.4s-17.4-5.8-26.1-8.7c-8.8-2.9-18.9-5.8-30.5-8.7s-26.1-5.8-43.6-7.3v159.9c32,10.2,62.5,20.3,93,30.5
	s56.7,23.3,79.9,39.2c23.3,16,42.2,34.9,55.3,59.6c14.5,23.3,21.8,52.3,21.8,90.1c0,33.4-5.8,64-18.9,91.6s-30.5,50.9-52.3,69.8
	s-49.4,34.9-80,46.5c-30.5,11.6-62.5,18.9-98.9,23.2v58.1c0,7.3-2.9,14.5-8.7,20.4c-7.3,5.8-14.5,8.7-23.2,8.7s-16-2.9-21.8-8.7
	c-7.3-5.8-10.2-13.1-10.2-20.4L1367.1,1375.9L1367.1,1375.9z M1505.2,1153.5c0-20.3-5.8-36.3-16-45c-11.6-8.7-21.8-14.6-33.4-18.9
	l-24.7-10.2v148.3c23.3-4.4,42.2-13.1,55.2-26.2C1499.4,1189.9,1505.2,1172.5,1505.2,1153.5L1505.2,1153.5z M1367.1,902.1V765.5
	c-20.3,2.9-39.3,8.7-53.8,18.9s-21.8,24.7-21.8,45c0,20.4,5.8,34.9,17.4,43.6c11.6,8.7,23.2,14.5,33.5,18.9L1367.1,902.1z"/>
<path class="st4" d="M2220.3,752.4c-5.8-17.5,2.9-34.9,20.3-40.7c16-5.8,33.5,4.4,39.3,20.4c55.2,167.2,59.6,346,17.4,514.6
	c-40.7,164.3-127.9,318.3-258.7,443.3c-11.7,11.6-32,11.6-43.6-1.5c-13.1-13.1-11.7-32,0-45.1c122.1-116.3,202.1-258.7,241.3-412.8
	C2275.6,1073.6,2271.2,907.9,2220.3,752.4L2220.3,752.4z"/>
<path class="st4" d="M1967.4,1598.4c-4.4-16,5.8-33.4,21.8-37.8c17.4-4.4,34.9,5.8,39.2,21.8l14.6,56.7l72.7,17.5
	c17.4,2.9,29,20.4,24.7,37.8c-4.4,17.5-20.3,27.6-37.8,23.3l-91.6-20.4c-11.6-1.5-21.8-10.2-24.7-23.2L1967.4,1598.4z"/>
<path class="st4" d="M580.7,1287.3c4.4,17.5-4.4,34.9-20.4,40.7c-17.4,5.8-34.9-2.9-40.7-20.4c-53.8-167.2-59.6-346-17.4-514.6
	C544.4,628.7,630.1,474.7,761,349.7c13.1-11.6,33.5-11.6,45.1,1.5s11.6,33.4-1.5,45C683.9,512.5,602.5,656.4,564.7,809.1
	C524,966.1,529.8,1131.8,580.7,1287.3L580.7,1287.3z"/>
<path class="st4" d="M833.6,441.3c4.4,16-5.8,33.4-23.2,37.8s-33.5-5.8-37.8-21.8l-16-56.7l-72.7-17.4
	c-17.4-2.9-27.6-20.4-23.2-37.8c2.9-17.4,20.3-27.6,37.8-23.2l91.6,20.3c11.6,2.9,20.3,10.2,23.2,23.3L833.6,441.3z"/>
<polygon class="st4" points="1276.9,239.8 1305.6,165.7 1251.3,163.3 "/>
<polygon class="st3" points="998.2,357.2 846.1,215.8 970.9,140 "/>
<polygon class="st3" points="1788.8,314.5 1939.4,176.4 1791.3,87.2 "/>
<polygon class="st3" points="1912.7,412.2 2040.3,400.2 2010.5,323 "/>
<polygon class="st3" points="811.4,1560.5 575.7,1609.9 659.1,1751.8 "/>
<polygon class="st3" points="1455.5,1862.1 1431.6,1988.1 1514.1,1980.8 "/>
<polygon class="st3" points="1739.5,1799.9 1789.5,2041.4 1930.8,1968 "/>
<polygon class="st4" points="1903.6,278.3 1945.7,263.4 1926.8,239.4 "/>
<polygon class="st4" points="948.1,1800.5 910.9,1825.1 935,1843.9 "/>
</svg>
