<svg xmlns="http://www.w3.org/2000/svg" width="303" height="269" viewBox="0 0 303 269">
  <g id="Untitled" transform="translate(11.984 -3)">
    <path id="Path_5" data-name="Path 5" d="M473.4,270.5c0,74.282-67.829,134.5-151.5,134.5S170.4,344.782,170.4,270.5,238.229,136,321.9,136,473.4,196.218,473.4,270.5Z" transform="translate(-182.384 -133)" fill="#12d619" opacity="0.57"/>
    <path id="Path_6" data-name="Path 6" d="M806.565,325.881H804.1V287.1h18.728v2.465H806.565Z" transform="translate(-637.518 -227.623)" fill="#3b5059"/>
    <path id="Path_7" data-name="Path 7" d="M483.254,769.99h-136.4a6.251,6.251,0,0,1-6.256-6.256V682.856a6.251,6.251,0,0,1,6.256-6.256H483.233a6.251,6.251,0,0,1,6.256,6.256v80.857A6.238,6.238,0,0,1,483.254,769.99Z" transform="translate(-270.039 -536.432)" fill="#3b5059"/>
    <path id="Path_8" data-name="Path 8" d="M0,0H80.815V136.335H0Z" transform="translate(213.171 146.465) rotate(90)" fill="#858585"/>
    <path id="Path_9" data-name="Path 9" d="M434.81,1144.318H264.645a6.2,6.2,0,0,1-6.3-7.686l15.91-17.236c.559-2.818,3.812-5.1,7.272-5.1H417.905c3.46,0,6.712,2.258,7.272,5.1l15.91,17.236A6.173,6.173,0,0,1,434.81,1144.318Z" transform="translate(-204.712 -883.456)" fill="#3b5059"/>
    <path id="Path_10" data-name="Path 10" d="M395.9,1144.916l7.541-8.908a2.286,2.286,0,0,1,1.761-.808H511.725a2.286,2.286,0,0,1,1.761.808l7.541,8.908a2.3,2.3,0,0,1-1.761,3.791H397.66A2.3,2.3,0,0,1,395.9,1144.916Z" transform="translate(-313.448 -900.026)" fill="#fff"/>
    <path id="Path_11" data-name="Path 11" d="M441.187,1219.484l-.621-.684H366.608l-1.761,2.818h-30.08l-1.761-2.818H259.068l-.622.684a6.2,6.2,0,0,0,6.3,7.686H434.889A6.194,6.194,0,0,0,441.187,1219.484Z" transform="translate(-204.791 -966.307)" fill="#23363d"/>
    <path id="Path_12" data-name="Path 12" d="M493.576,813.879a18.669,18.669,0,0,0-10.628-5.1v-.518a22.213,22.213,0,0,0-29.48-20.986L448,761.3H430.515l-5.469,25.978a22.213,22.213,0,0,0-29.48,20.986v.518a18.606,18.606,0,0,0-10.628,5.1A21.357,21.357,0,0,0,371.1,802.091v28.755h90.842c.062-.249.1-.394.145-.394a2.661,2.661,0,0,0,.083.394h45.224V802.091A21.321,21.321,0,0,0,493.576,813.879Z" transform="translate(-294.221 -603.585)" fill="#fff"/>
    <g id="Group_10" data-name="Group 10" transform="translate(120.549 193.865)">
      <path id="Path_13" data-name="Path 13" d="M628.761,959.23a23.43,23.43,0,1,1-23.43-23.43,23.43,23.43,0,0,1,23.43,23.43Z" transform="translate(-581.9 -935.8)" fill="#12d619"/>
      <path id="Path_14" data-name="Path 14" d="M639.478,973.739A19.639,19.639,0,1,1,619.839,954.1,19.639,19.639,0,0,1,639.478,973.739Z" transform="translate(-596.409 -950.309)" fill="#01ae07"/>
      <path id="Path_15" data-name="Path 15" d="M672.949,994.488h0l-9.115-14.274h0l-.269-.414L654.2,994.488h0l9.364,14.688.269-.414h0Z" transform="translate(-639.222 -970.685)" fill="#018205"/>
      <g id="Group_9" data-name="Group 9" transform="translate(14.004 8.618)">
        <path id="Path_16" data-name="Path 16" d="M668.248,992.109,658.864,977.4,649.5,992.109Z" transform="translate(-649.5 -977.4)" fill="#4ed252"/>
        <path id="Path_17" data-name="Path 17" d="M649.5,1048.3l9.364,14.709,9.385-14.709Z" transform="translate(-649.5 -1033.612)" fill="#4ed252"/>
        <path id="Path_18" data-name="Path 18" d="M650.039,992.109h-.021l.021-.021h0l9.095-14.274-.269-.414L649.5,992.088h0v.021h0l9.364,14.688.269-.435Z" transform="translate(-649.5 -977.4)" fill="#fff" opacity="0.38"/>
        <path id="Path_19" data-name="Path 19" d="M659.022,1053.293l-9.322-4.972,9.322,6.215,9.26-6.236Z" transform="translate(-649.659 -1033.612)" fill="#fff" opacity="0.38"/>
        <path id="Path_20" data-name="Path 20" d="M668.283,1033.553l-9.26-3.853-9.322,3.874,9.322,4.972Z" transform="translate(-649.659 -1018.865)" fill="#018205"/>
      </g>
    </g>
    <g id="Group_11" data-name="Group 11" transform="translate(30.018 52.206)">
      <path id="Path_21" data-name="Path 21" d="M431.173,335.28h-2.465V313.465H388V311h43.173Z" transform="translate(-337.638 -298.777)" fill="#3b5059"/>
      <path id="Path_22" data-name="Path 22" d="M396.858,416.726h-15.5L375.6,404.565H349.5V402.1h27.657l5.759,12.161h13.942Z" transform="translate(-307.114 -371.005)" fill="#3b5059"/>
      <path id="Path_23" data-name="Path 23" d="M328.768,514.341H296.429l-7.354-10.876H249.9V501h40.48l7.354,10.876h31.033Z" transform="translate(-228.148 -449.416)" fill="#3b5059"/>
      <path id="Path_24" data-name="Path 24" d="M230.876,615.824H206.7v-2.465h23.451l8.97-5.759H302v2.465h-62.15Z" transform="translate(-193.897 -533.932)" fill="#3b5059"/>
      <path id="Path_25" data-name="Path 25" d="M226.289,470.141l-3.315-7.976H184.4V459.7h40.231l3.936,9.509Z" transform="translate(-176.217 -416.672)" fill="#3b5059"/>
      <path id="Path_26" data-name="Path 26" d="M478.129,280.275l-5.738-7.209H455.9V270.6h17.671l6.484,8.142Z" transform="translate(-391.472 -266.747)" fill="#3b5059"/>
      <path id="Path_27" data-name="Path 27" d="M887.193,276.385a4.993,4.993,0,1,1,4.993-4.993A5,5,0,0,1,887.193,276.385Zm0-7.52a2.527,2.527,0,1,0,2.527,2.527A2.538,2.538,0,0,0,887.193,268.865Z" transform="translate(-729.457 -263.417)" fill="#3b5059"/>
      <path id="Path_28" data-name="Path 28" d="M1005.893,331.085a4.993,4.993,0,1,1,4.993-4.993A5,5,0,0,1,1005.893,331.085Zm0-7.52a2.527,2.527,0,1,0,2.527,2.527A2.538,2.538,0,0,0,1005.893,323.565Z" transform="translate(-823.567 -306.785)" fill="#3b5059"/>
      <path id="Path_29" data-name="Path 29" d="M422.293,261.985a4.993,4.993,0,1,1,4.993-4.993A5,5,0,0,1,422.293,261.985Zm0-7.52a2.527,2.527,0,1,0,2.527,2.527A2.538,2.538,0,0,0,422.293,254.465Z" transform="translate(-360.868 -252)" fill="#3b5059"/>
      <path id="Path_30" data-name="Path 30" d="M350.093,301.685a4.993,4.993,0,1,1,4.993-4.993A5,5,0,0,1,350.093,301.685Zm0-7.52a2.527,2.527,0,1,0,2.527,2.527A2.537,2.537,0,0,0,350.093,294.165Z" transform="translate(-303.625 -283.476)" fill="#3b5059"/>
      <path id="Path_31" data-name="Path 31" d="M311.793,392.785a4.993,4.993,0,1,1,4.993-4.993A5,5,0,0,1,311.793,392.785Zm0-7.52a2.527,2.527,0,1,0,2.527,2.527A2.538,2.538,0,0,0,311.793,385.265Z" transform="translate(-273.26 -355.703)" fill="#3b5059"/>
      <path id="Path_32" data-name="Path 32" d="M149.893,449.985a4.993,4.993,0,1,1,4.993-4.993A5,5,0,0,1,149.893,449.985Zm0-7.52a2.527,2.527,0,1,0,2.527,2.527A2.538,2.538,0,0,0,149.893,442.465Z" transform="translate(-144.9 -401.053)" fill="#3b5059"/>
      <path id="Path_33" data-name="Path 33" d="M216.493,494.085a4.993,4.993,0,1,1,4.993-4.993A5,5,0,0,1,216.493,494.085Zm0-7.52a2.527,2.527,0,1,0,2.527,2.527A2.538,2.538,0,0,0,216.493,486.565Z" transform="translate(-197.703 -436.017)" fill="#3b5059"/>
      <path id="Path_34" data-name="Path 34" d="M172.593,626.485a4.993,4.993,0,1,1,4.993-4.993A5,5,0,0,1,172.593,626.485Zm0-7.52a2.527,2.527,0,1,0,2.527,2.527A2.538,2.538,0,0,0,172.593,618.965Z" transform="translate(-162.897 -540.988)" fill="#3b5059"/>
      <path id="Path_35" data-name="Path 35" d="M1087.993,401.885a4.993,4.993,0,1,1,4.993-4.993A5,5,0,0,1,1087.993,401.885Zm0-7.52a2.527,2.527,0,1,0,2.527,2.527A2.511,2.511,0,0,0,1087.993,394.365Z" transform="translate(-888.658 -362.918)" fill="#3b5059"/>
      <path id="Path_36" data-name="Path 36" d="M1084.993,479.085a4.993,4.993,0,1,1,4.993-4.993A5,5,0,0,1,1084.993,479.085Zm0-7.52a2.527,2.527,0,1,0,2.527,2.527A2.538,2.538,0,0,0,1084.993,471.565Z" transform="translate(-886.28 -424.124)" fill="#3b5059"/>
      <path id="Path_37" data-name="Path 37" d="M1211.993,513.785a4.993,4.993,0,1,1,4.993-4.993A5,5,0,0,1,1211.993,513.785Zm0-7.52a2.527,2.527,0,1,0,2.527,2.527A2.538,2.538,0,0,0,1211.993,506.265Z" transform="translate(-986.97 -451.636)" fill="#3b5059"/>
      <path id="Path_38" data-name="Path 38" d="M1200.693,577.885a4.993,4.993,0,1,1,4.993-4.993A5,5,0,0,1,1200.693,577.885Zm0-7.52a2.527,2.527,0,1,0,2.528,2.527A2.537,2.537,0,0,0,1200.693,570.365Z" transform="translate(-978.011 -502.457)" fill="#3b5059"/>
      <path id="Path_39" data-name="Path 39" d="M1113.393,620.485a4.993,4.993,0,1,1,4.993-4.993A5,5,0,0,1,1113.393,620.485Zm0-7.52a2.527,2.527,0,1,0,2.527,2.527A2.511,2.511,0,0,0,1113.393,612.965Z" transform="translate(-908.796 -536.231)" fill="#3b5059"/>
      <path id="Path_40" data-name="Path 40" d="M852.12,423.457H812.8v-2.465h38.139L858.6,411.4h12.451v2.465H859.806Z" transform="translate(-674.434 -378.378)" fill="#3b5059"/>
      <path id="Path_41" data-name="Path 41" d="M812.8,522.6h83.715v2.465H812.8Z" transform="translate(-674.434 -466.541)" fill="#3b5059"/>
      <path id="Path_42" data-name="Path 42" d="M888.336,609.814H856.682l-7.044-5.448H828.3V601.9h22.187l7.023,5.448h30.826Z" transform="translate(-686.723 -529.413)" fill="#3b5059"/>
      <path id="Path_43" data-name="Path 43" d="M1033.713,597.135l-2.113-1.264,5.7-9.571h30.143v2.486h-28.734Z" transform="translate(-847.906 -517.045)" fill="#3b5059"/>
      <path id="Path_44" data-name="Path 44" d="M879.755,303.133H851.974l-6.774-11.27,2.113-1.264,6.049,10.068h26.393Z" transform="translate(-700.122 -282.603)" fill="#3b5059"/>
      <path id="Path_45" data-name="Path 45" d="M1015.74,498.864l-1.74-1.74,7.6-7.624h7.769v2.486h-6.733Z" transform="translate(-833.953 -440.298)" fill="#3b5059"/>
    </g>
    <g id="Group_17" data-name="Group 17" transform="translate(112.559 42.966)">
      <path id="Path_46" data-name="Path 46" d="M615.6,303.67h34.866V230.23c.394-13.486-17.423-22.83-17.423-22.83-.021,0-17.816,9.343-17.423,22.83v73.44Z" transform="translate(-600.628 -207.4)" fill="#858585"/>
      <path id="Path_47" data-name="Path 47" d="M615.807,303.3a17.121,17.121,0,0,0-.207,2.072h34.866a13.757,13.757,0,0,0-.207-2.072Z" transform="translate(-600.628 -283.433)" fill="#484848"/>
      <path id="Path_48" data-name="Path 48" d="M655.293,759.5v7.271H623.7V759.5l2.838-4.081h25.833V755.4l.083.021Z" transform="translate(-607.05 -641.873)" fill="#f6f6f6"/>
      <path id="Path_49" data-name="Path 49" d="M623.7,775.6h31.593v7.189H623.7Z" transform="translate(-607.05 -657.889)" fill="#484848"/>
      <path id="Path_50" data-name="Path 50" d="M650.309,326.1s-13.217,11.187-12.927,21.172v67.764h25.854V347.293C663.526,337.287,650.309,326.1,650.309,326.1Z" transform="translate(-617.894 -301.509)" fill="#cecece"/>
      <path id="Path_51" data-name="Path 51" d="M700,326.4v88.915h12.865V347.531C713.155,337.877,700.87,327.146,700,326.4Z" transform="translate(-667.543 -301.747)" fill="#acaaaa"/>
      <g id="Group_12" data-name="Group 12" transform="translate(2.912 38.056)">
        <path id="Path_52" data-name="Path 52" d="M563.44,391.1s-6.194,5.241-6.049,9.923v54.443H569.51V401.023C569.634,396.321,563.44,391.1,563.44,391.1Z" transform="translate(-557.388 -391.1)" fill="#f6f6f6"/>
        <path id="Path_53" data-name="Path 53" d="M586.7,391.2v64.346h6.028V401.1C592.853,396.566,587.114,391.531,586.7,391.2Z" transform="translate(-580.628 -391.179)" fill="#cecece"/>
      </g>
      <g id="Group_13" data-name="Group 13" transform="translate(49.794 38.056)">
        <path id="Path_54" data-name="Path 54" d="M789.74,391.1s-6.194,5.241-6.049,9.923v54.443h12.119V401.023C795.934,396.321,789.74,391.1,789.74,391.1Z" transform="translate(-783.688 -391.1)" fill="#f6f6f6"/>
        <path id="Path_55" data-name="Path 55" d="M813,391.2v64.346h6.029V401.1C819.173,396.566,813.414,391.531,813,391.2Z" transform="translate(-806.927 -391.179)" fill="#cecece"/>
      </g>
      <g id="Group_14" data-name="Group 14" transform="translate(2.915 48.269)">
        <path id="Path_56" data-name="Path 56" d="M557.4,440.4v2.32h12.1V440.4H557.4Z" transform="translate(-557.4 -440.4)" fill="#b2b2b2"/>
        <path id="Path_57" data-name="Path 57" d="M789.77,440.4H783.7v2.32h12.1V440.4Z" transform="translate(-736.818 -440.4)" fill="#b2b2b2"/>
      </g>
      <path id="Path_58" data-name="Path 58" d="M637.4,747.7h25.854v1.616H637.4Z" transform="translate(-617.912 -635.769)" fill="#b2b2b2"/>
      <path id="Path_59" data-name="Path 59" d="M563.129,467.3c-.414.352-1.823,1.947-1.823,6.836,0,5.738.912,13.507-7.437,22.125s-10.752,18.583-10.524,30.909h19.764V467.3Z" transform="translate(-543.33 -413.458)" fill="#b2b2b2"/>
      <path id="Path_60" data-name="Path 60" d="M761.1,467.3c.414.352,1.823,1.947,1.823,6.836,0,5.738-.911,13.507,7.437,22.125s10.752,18.583,10.524,30.909H761.121V467.3Z" transform="translate(-715.986 -413.458)" fill="#706e6e"/>
      <g id="Group_16" data-name="Group 16" transform="translate(23.093 46.612)">
        <path id="Path_61" data-name="Path 61" d="M674.771,442.385a9.985,9.985,0,1,1-9.985-9.985A9.985,9.985,0,0,1,674.771,442.385Z" transform="translate(-654.8 -432.4)" fill="#12d619"/>
        <path id="Path_62" data-name="Path 62" d="M679.339,448.569a8.37,8.37,0,1,1-8.37-8.369,8.37,8.37,0,0,1,8.37,8.369Z" transform="translate(-660.984 -438.584)" fill="#01ae07"/>
        <path id="Path_63" data-name="Path 63" d="M693.6,457.456h-.021l-3.874-6.07h0l-.1-.186-4,6.256h0l4,6.256.1-.166h0l3.874-6.091Z" transform="translate(-679.219 -447.305)" fill="#018205"/>
        <g id="Group_15" data-name="Group 15" transform="translate(5.966 3.688)">
          <path id="Path_64" data-name="Path 64" d="M691.576,456.456,687.6,450.2l-4,6.256Z" transform="translate(-683.6 -450.2)" fill="#4ed252"/>
          <path id="Path_65" data-name="Path 65" d="M683.6,480.4l4,6.256,3.978-6.256Z" transform="translate(-683.6 -474.144)" fill="#4ed252"/>
          <path id="Path_66" data-name="Path 66" d="M683.828,456.456h0l3.874-6.07-.1-.186-4,6.256h0l4,6.256.1-.166Z" transform="translate(-683.6 -450.2)" fill="#fff" opacity="0.38"/>
          <path id="Path_67" data-name="Path 67" d="M687.678,482.534,683.7,480.4l3.978,2.652,3.936-2.652Z" transform="translate(-683.679 -474.144)" fill="#fff" opacity="0.38"/>
          <path id="Path_68" data-name="Path 68" d="M691.614,474.137l-3.936-1.637-3.978,1.637,3.978,2.134Z" transform="translate(-683.679 -467.88)" fill="#018205"/>
        </g>
      </g>
    </g>
    <path id="Path_69" data-name="Path 69" d="M182.645,779.7l.849,4.785a9.653,9.653,0,0,0,7.81,7.81l4.786.849-4.786.849a9.653,9.653,0,0,0-7.81,7.81l-.849,4.785L181.8,801.8a9.653,9.653,0,0,0-7.81-7.81l-4.786-.849,4.786-.849a9.653,9.653,0,0,0,7.81-7.81Z" transform="translate(-134.148 -618.173)" fill="#fff"/>
    <path id="Path_70" data-name="Path 70" d="M166.924,1019.7l.477,2.714a5.488,5.488,0,0,0,4.433,4.433l2.714.477-2.714.477a5.489,5.489,0,0,0-4.433,4.433l-.477,2.714-.476-2.714a5.489,5.489,0,0,0-4.433-4.433l-2.714-.477,2.714-.477a5.488,5.488,0,0,0,4.433-4.433Z" transform="translate(-126.299 -808.454)" fill="#fff"/>
    <path id="Path_71" data-name="Path 71" d="M112.775,265l.663,3.646a7.359,7.359,0,0,0,5.966,5.966l3.646.663-3.646.663a7.359,7.359,0,0,0-5.966,5.966l-.663,3.646-.663-3.646a7.359,7.359,0,0,0-5.966-5.966l-3.646-.663,3.646-.663a7.359,7.359,0,0,0,5.966-5.966Z" transform="translate(-81.266 -210.101)" fill="#fff"/>
    <path id="Path_72" data-name="Path 72" d="M382.128,100.3l.7,4a8.066,8.066,0,0,0,6.526,6.526l4,.7-4,.7a8.066,8.066,0,0,0-6.526,6.526l-.7,4-.7-4a8.066,8.066,0,0,0-6.526-6.526l-4-.7,4-.7a8.066,8.066,0,0,0,6.526-6.526Z" transform="translate(-294.062 -79.521)" fill="#fff"/>
    <path id="Path_73" data-name="Path 73" d="M662.362,94.9l.518,2.9a5.862,5.862,0,0,0,4.744,4.744l2.9.518-2.9.518a5.862,5.862,0,0,0-4.744,4.744l-.518,2.9-.518-2.9a5.862,5.862,0,0,0-4.744-4.744l-2.9-.518,2.9-.518a5.862,5.862,0,0,0,4.744-4.744Z" transform="translate(-518.672 -75.24)" fill="#fff"/>
    <path id="Path_74" data-name="Path 74" d="M56.911,561l.539,2.983a6.063,6.063,0,0,0,4.889,4.889l2.983.539-2.983.539a6.063,6.063,0,0,0-4.889,4.889l-.539,2.983-.539-2.983a6.063,6.063,0,0,0-4.889-4.889l-2.983-.539,3-.539a6.063,6.063,0,0,0,4.889-4.889Z" transform="translate(-38.452 -444.78)" fill="#fff"/>
    <path id="Path_75" data-name="Path 75" d="M1111.745,779.7l-.849,4.785a9.653,9.653,0,0,1-7.81,7.81l-4.786.849,4.786.849a9.653,9.653,0,0,1,7.81,7.81l.849,4.785.849-4.785a9.653,9.653,0,0,1,7.81-7.81l4.786-.849-4.786-.849a9.653,9.653,0,0,1-7.81-7.81Z" transform="translate(-870.77 -618.173)" fill="#fff"/>
    <path id="Path_76" data-name="Path 76" d="M1172.024,1019.7l-.476,2.714a5.489,5.489,0,0,1-4.433,4.433l-2.714.477,2.714.477a5.489,5.489,0,0,1,4.433,4.433l.476,2.714.476-2.714a5.489,5.489,0,0,1,4.433-4.433l2.714-.477-2.714-.477a5.489,5.489,0,0,1-4.433-4.433Z" transform="translate(-923.177 -808.454)" fill="#fff"/>
    <path id="Path_77" data-name="Path 77" d="M1205.875,265l-.663,3.646a7.359,7.359,0,0,1-5.966,5.966l-3.646.663,3.646.663a7.359,7.359,0,0,1,5.966,5.966l.663,3.646.663-3.646a7.359,7.359,0,0,1,5.966-5.966l3.646-.663-3.646-.663a7.359,7.359,0,0,1-5.966-5.966Z" transform="translate(-947.913 -210.101)" fill="#fff"/>
    <path id="Path_78" data-name="Path 78" d="M907.728,100.3l-.7,4a8.066,8.066,0,0,1-6.526,6.526l-4,.7,4,.7a8.066,8.066,0,0,1,6.526,6.526l.7,4,.7-4a8.066,8.066,0,0,1,6.526-6.526l4-.7-4-.7a8.066,8.066,0,0,1-6.526-6.526Z" transform="translate(-710.776 -79.521)" fill="#fff"/>
    <path id="Path_79" data-name="Path 79" d="M1276.011,561l-.539,2.983a6.063,6.063,0,0,1-4.889,4.889l-2.983.539,2.983.539a6.063,6.063,0,0,1,4.889,4.889l.539,2.983.539-2.983a6.063,6.063,0,0,1,4.889-4.889l2.983-.539-2.983-.539a6.063,6.063,0,0,1-4.889-4.889Z" transform="translate(-1004.997 -444.78)" fill="#fff"/>
  </g>
</svg>
