<?xml version="1.0" encoding="utf-8"?>
<!-- Generator: Adobe Illustrator 25.2.1, SVG Export Plug-In . SVG Version: 6.00 Build 0)  -->
<svg version="1.1" id="Layer_1" xmlns="http://www.w3.org/2000/svg" xmlns:xlink="http://www.w3.org/1999/xlink" x="0px" y="0px"
	 viewBox="0 0 1743.3 513" style="enable-background:new 0 0 1743.3 513;" xml:space="preserve">
<style type="text/css">
	.st0{fill:#FFFFFF;}
	.st1{font-family:'Verdana';}
	.st2{font-size:388.6226px;}
	.st3{clip-path:url(#SVGID_2_);fill:none;stroke:#484848;stroke-width:50;stroke-miterlimit:10;}
	.st4{clip-path:url(#SVGID_4_);fill:none;stroke:#484848;stroke-width:50;stroke-miterlimit:10;}
	.st5{fill:none;}
</style>
<text transform="matrix(1 0 0 1 509.1857 425.7)" class="st0 st1 st2">Bo</text>
<text transform="matrix(1 0 0 1 1011.4857 425.7)" class="st0 st1 st2">Bux</text>
<g>
	<g>
		<defs>
			
				<rect id="SVGID_1_" x="10.9" y="7.9" transform="matrix(0.1753 -0.9845 0.9845 0.1753 -38.4692 466.4696)" width="496.6" height="496.6"/>
		</defs>
		<clipPath id="SVGID_2_">
			<use xlink:href="#SVGID_1_"  style="overflow:visible;"/>
		</clipPath>
		<path class="st3" d="M-42,466.4"/>
	</g>
	<g>
		<defs>
			
				<rect id="SVGID_3_" x="10.9" y="7.9" transform="matrix(0.1753 -0.9845 0.9845 0.1753 -38.4692 466.4696)" width="496.6" height="496.6"/>
		</defs>
		<clipPath id="SVGID_4_">
			<use xlink:href="#SVGID_3_"  style="overflow:visible;"/>
		</clipPath>
		<path class="st4" d="M560.4,46"/>
	</g>
</g>
<path class="st0" d="M82.5,3l144.3,206.8l-14,78.8l78.8,14l144.3,206.9l-430-76.6L82.5,3z M435.9,509.5L291.6,302.6l14-78.8
	l-78.8-14L82.5,3l429.9,76.5L435.9,509.5z"/>
<rect x="2361.6" y="413.5" class="st5" width="8.1" height="2.7"/>
</svg>
