<?xml version="1.0" encoding="utf-8"?>
<!-- Generator: Adobe Illustrator 25.2.1, SVG Export Plug-In . SVG Version: 6.00 Build 0)  -->
<svg version="1.1" id="master-artboard" xmlns="http://www.w3.org/2000/svg" xmlns:xlink="http://www.w3.org/1999/xlink" x="0px"
	 y="0px" viewBox="0 0 2045.4 980" style="enable-background:new 0 0 2045.4 980;" xml:space="preserve">
<style type="text/css">
	.st0{opacity:0.24;fill:url(#SVGID_1_);enable-background:new    ;}
	.st1{fill:#A4A4A4;}
	.st2{fill:#12D619;}
	.st3{fill:#01AE07;}
	.st4{opacity:0.38;fill:#65471B;enable-background:new    ;}
	.st5{opacity:0.38;fill:#F19020;enable-background:new    ;}
	.st6{opacity:0.24;fill:url(#SVGID_2_);enable-background:new    ;}
</style>
<linearGradient id="SVGID_1_" gradientUnits="userSpaceOnUse" x1="43.2269" y1="1327.022" x2="-1007.7722" y2="2134.9036" gradientTransform="matrix(1 0 0 1 0 -1036)">
	<stop  offset="0" style="stop-color:#12D619"/>
	<stop  offset="1" style="stop-color:#01AE07"/>
</linearGradient>
<polygon class="st0" points="-75,150.5 -148.5,279.3 -291.6,311.6 -358.3,393.1 -570.2,497.6 -767,520.1 -1124.2,622.7 
	-1124.2,947.6 -75,947.6 "/>
<rect x="-76.3" y="150.8" class="st1" width="1.3" height="796.6"/>
<rect x="-1143.6" y="947.6" class="st1" width="1075.7" height="11.2"/>
<polygon class="st1" points="-67.8,926.3 -67.8,980 -29.1,953.2 "/>
<path class="st2" d="M-1134.6,619l362.8-104.3l196.8-22.5l212-104.5l66.7-81.5l143.1-32.4L-79.7,145l4.8,5.4l-73.5,128.8
	l-143.1,32.4l-66.7,81.5l-212,104.5L-767,520.1l-362.8,104.3L-1134.6,619z"/>
<polygon class="st3" points="-70,167.8 -20,196.4 -48.9,224.5 "/>
<polygon class="st3" points="-59,120.5 -48.8,101.7 -43.7,113 "/>
<polygon class="st2" points="-104.7,152.9 -154.6,184.9 -166.5,145.1 "/>
<polygon class="st2" points="-113,134 -131.9,140.3 -132.5,126.3 "/>
<polygon class="st2" points="-106.7,143.3 -50.4,158.3 -67.7,110.2 "/>
<rect x="-1135.4" y="38.7" class="st1" width="11.2" height="928.5"/>
<ellipse class="st4" cx="-332.9" cy="565.1" rx="28" ry="34.9"/>
<polygon class="st1" points="-1156.7,38.7 -1102.9,38.7 -1129.8,0 "/>
<path class="st4" d="M-314.4,694.9c-1.9-1.6-3.3-3.6-4.1-6.1c-1.8-6.1,1.7-12.1,7.8-13.4c59.5-13.4,99.7,17.9,101.4,19.2
	c5,4.1,6.1,11.1,2.3,15.9c-3.7,4.7-10.9,5.3-15.9,1.3c-1.4-1.1-33.2-25.3-81.4-14.5C-307.9,698.2-311.6,697.1-314.4,694.9z"/>
<ellipse class="st4" cx="-184.7" cy="579.1" rx="28" ry="34.9"/>
<path class="st5" d="M-278.2,880.6c0,0,16.6-5.4,18.8-17.8c2.3-12.8-8.2-15.3-8.2-15.3s13.7-2.7,15.4-18
	c1.7-14.5-11.4-17.9-11.4-17.9s12.8-5.3,13.4-20.2c0.5-12.7-13.1-18.8-13.1-18.8s66.3-16,73.2-17.7c6.8-1.6,17.3-8.1,14.1-22.2
	c-3.2-14.2-15.9-14.7-22.4-13.1c-6.5,1.6-88.7,20.6-117.1,27.3l-18.9,4.4c-7.1,1.7-10.3-1.4-5.3-6.7c6.7-7.1,11-14.8,12.4-27.8
	c1.6-13.6-3.1-30.5-5.7-36.9c-4.9-12.1-13.3-21.8-22.8-25c-14.9-5.1-25.6,4.2-20.3,20.6c7.9,24.4,2.7,44.5-11,56.5
	c-32.3,28.3-47.2,48.6-37.3,91.8c10.9,47.1,57.6,77.3,104.6,66.5C-319.7,889.5-278.2,880.6-278.2,880.6z"/>
<path class="st4" d="M-383.2,498.1c-2.2-1.2-3.9-3-5.1-5.3c-2.9-5.6-0.5-12.2,5.1-14.6c56.2-24.1,101.4-0.6,103.2,0.5
	c5.7,3,8,9.8,5.1,15.2c-2.9,5.4-9.7,7.2-15.4,4.2c-1.7-0.8-37.3-18.9-82.6,0.6C-376.2,500.1-380,499.7-383.2,498.1z M-223.6,547.4
	c-2-1.3-3.7-3.2-4.8-5.6c-2.5-5.9,0.4-12.2,6.2-14.2c57.6-20.2,101.1,6.3,102.9,7.4c5.5,3.5,7.3,10.4,4.1,15.5
	c-3.2,5.1-10.2,6.5-15.7,3.1c-1.6-1-35.9-21.3-82.5-5C-216.7,549.8-220.4,549.2-223.6,547.4z"/>
<polygon class="st2" points="-300.4,307.1 -318.9,296.1 -307.8,285.7 "/>
<polygon class="st2" points="-353.6,396.4 -335.7,413.4 -351,419.5 "/>
<polygon class="st3" points="-323.7,328.1 -330.4,331.4 -329.6,327.1 "/>
<polygon class="st2" points="-151.5,262.2 -170,251.2 -158.9,240.8 "/>
<polygon class="st2" points="-146.9,283.4 -134.4,291 -142,298.1 "/>
<polygon class="st2" points="-156.1,284.2 -155.5,301.6 -168.5,300.3 "/>
<polygon class="st3" points="-164,272.8 -170,268.1 -165.7,267 "/>
<polygon class="st3" points="-335.7,384.8 -323.1,385.4 -327.8,390.9 "/>
<linearGradient id="SVGID_2_" gradientUnits="userSpaceOnUse" x1="2115.5251" y1="1332.5719" x2="1064.526" y2="2140.4536" gradientTransform="matrix(1 0 0 1 0 -1036)">
	<stop  offset="0" style="stop-color:#12D619"/>
	<stop  offset="1" style="stop-color:#01AE07"/>
</linearGradient>
<polygon class="st6" points="1997.3,156 1923.8,284.8 1780.7,317.1 1714,398.6 1502.1,503.1 1305.3,525.6 948.1,628.3 948.1,953.1 
	1997.3,953.1 "/>
<rect x="1996" y="156.3" class="st1" width="1.3" height="796.6"/>
<rect x="13.4" y="947.6" class="st1" width="1994.2" height="11.2"/>
<polygon class="st1" points="1994.9,926.3 1994.9,980 2033.6,953.2 "/>
<path class="st2" d="M937.7,624.5l362.8-104.3l196.8-22.5l212-104.5l66.7-81.5l143.1-32.4l73.5-128.8l4.8,5.4l-73.5,128.8
	l-143.1,32.4l-66.7,81.5l-212,104.5l-196.8,22.5L942.5,630L937.7,624.5z"/>
<polygon class="st3" points="2002.3,173.3 2052.3,201.9 2023.4,230 "/>
<polygon class="st3" points="2013.3,126 2023.5,107.2 2028.6,118.5 "/>
<polygon class="st2" points="1967.6,158.4 1917.7,190.4 1905.8,150.6 "/>
<polygon class="st2" points="1959.3,139.5 1940.4,145.8 1939.8,131.8 "/>
<polygon class="st2" points="1965.6,148.8 2021.9,163.8 2004.6,115.7 "/>
<ellipse class="st4" cx="1739.4" cy="570.6" rx="28" ry="34.9"/>
<path class="st4" d="M1757.9,700.5c-1.9-1.6-3.3-3.6-4.1-6.1c-1.8-6.1,1.7-12.1,7.8-13.4c59.5-13.4,99.7,17.9,101.4,19.2
	c5,4.1,6.1,11.1,2.3,15.9c-3.7,4.7-10.9,5.3-15.9,1.3c-1.4-1.1-33.2-25.3-81.4-14.5C1764.4,703.8,1760.7,702.6,1757.9,700.5z"/>
<ellipse class="st4" cx="1887.6" cy="584.6" rx="28" ry="34.9"/>
<path class="st5" d="M1794.1,886.1c0,0,16.6-5.4,18.8-17.8c2.3-12.8-8.2-15.3-8.2-15.3s13.7-2.7,15.4-18
	c1.7-14.5-11.4-17.9-11.4-17.9s12.8-5.3,13.4-20.2c0.5-12.7-13.1-18.8-13.1-18.8s66.3-16,73.2-17.7c6.8-1.6,17.3-8.1,14.1-22.2
	c-3.2-14.2-15.9-14.7-22.4-13.1c-6.5,1.6-88.7,20.6-117.1,27.3l-18.9,4.4c-7.1,1.7-10.3-1.4-5.3-6.7c6.7-7.1,11-14.8,12.4-27.8
	c1.6-13.6-3.1-30.5-5.7-36.9c-4.9-12.1-13.3-21.8-22.8-25c-14.9-5.1-25.6,4.2-20.3,20.6c7.9,24.4,2.7,44.5-11,56.5
	c-32.3,28.3-47.2,48.6-37.3,91.8c10.9,47.1,57.6,77.3,104.6,66.5C1752.6,895,1794.1,886.1,1794.1,886.1z"/>
<path class="st4" d="M1689.1,503.6c-2.2-1.2-3.9-3-5.1-5.3c-2.9-5.6-0.5-12.2,5.1-14.6c56.2-24.1,101.4-0.6,103.2,0.5
	c5.7,3,8,9.8,5.1,15.2c-2.9,5.4-9.7,7.2-15.4,4.2c-1.7-0.8-37.3-18.9-82.6,0.6C1696.1,505.6,1692.3,505.2,1689.1,503.6z M1848.7,553
	c-2-1.3-3.7-3.2-4.8-5.6c-2.5-5.9,0.4-12.2,6.2-14.2c57.6-20.2,101.1,6.3,102.9,7.4c5.5,3.5,7.3,10.4,4.1,15.5
	c-3.2,5.1-10.2,6.5-15.7,3.1c-1.6-1-35.9-21.3-82.5-5C1855.6,555.3,1851.9,554.8,1848.7,553z"/>
<polygon class="st2" points="1771.9,312.6 1753.4,301.6 1764.5,291.2 "/>
<polygon class="st2" points="1718.7,401.9 1736.6,418.9 1721.3,425 "/>
<polygon class="st3" points="1748.6,333.6 1741.9,336.9 1742.7,332.6 "/>
<polygon class="st2" points="1920.8,267.7 1902.3,256.7 1913.4,246.3 "/>
<polygon class="st2" points="1925.4,288.9 1937.9,296.5 1930.3,303.6 "/>
<polygon class="st2" points="1916.2,289.7 1916.8,307.1 1903.8,305.8 "/>
<polygon class="st3" points="1908.3,278.3 1902.3,273.6 1906.6,272.5 "/>
<polygon class="st3" points="1736.6,390.3 1749.2,390.9 1744.5,396.4 "/>
</svg>
