<?xml version="1.0" encoding="utf-8"?>
<!-- Generator: Adobe Illustrator 24.1.2, SVG Export Plug-In . SVG Version: 6.00 Build 0)  -->
<svg version="1.1" id="master-artboard" xmlns="http://www.w3.org/2000/svg" xmlns:xlink="http://www.w3.org/1999/xlink" x="0px"
	 y="0px" viewBox="0 0 1400 980" style="enable-background:new 0 0 1400 980;" xml:space="preserve">
<style type="text/css">
	.st0{fill:#484848;}
	.st1{fill:#FFFFFF;}
	.st2{fill:url(#SVGID_1_);}
	.st3{fill:url(#SVGID_2_);}
	.st4{fill:#12D619;}
	.st5{fill:#01AE07;}
</style>
<path class="st0" d="M850.6,310.7c-6.3,6.6-15.4,11-25.1,11H638.7c-11,0-20.7-5.3-27.3-13.5C523,383.3,402.3,505,384,596.2
	c-19.2,96.5-34.9,289.8,0,340.1s622.1,57.8,707,19.2c84.9-38.7-19.2-405.8-54.1-459.9C1009.3,452.5,895.5,350.3,850.6,310.7z"/>
<path class="st1" d="M843.9,331.4c-5.9,6.2-14.4,10.3-23.6,10.3H645.2c-10.3,0-19.5-5-25.7-12.7c-82.9,70.5-196.1,184.6-213.2,270.1
	c-18,90.5-32.7,271.8,0,319s583.5,54.3,663.1,18s-18-380.6-50.7-431.4C992.8,464.4,886.1,368.6,843.9,331.4z"/>
<linearGradient id="SVGID_1_" gradientUnits="userSpaceOnUse" x1="386.9033" y1="644.094" x2="1099.9039" y2="644.094">
	<stop  offset="0" style="stop-color:#01AE07;stop-opacity:0"/>
	<stop  offset="0.5406" style="stop-color:#02B008;stop-opacity:0.2703"/>
	<stop  offset="0.7354" style="stop-color:#05B70B;stop-opacity:0.3677"/>
	<stop  offset="0.8736" style="stop-color:#0AC210;stop-opacity:0.4368"/>
	<stop  offset="0.9852" style="stop-color:#11D318;stop-opacity:0.4926"/>
	<stop  offset="1" style="stop-color:#12D619;stop-opacity:0.5"/>
</linearGradient>
<path class="st2" d="M843.9,331.4c-5.9,6.2-14.4,10.3-23.6,10.3H645.2c-10.3,0-19.5-5-25.7-12.7c-82.9,70.5-196.1,184.6-213.2,270.1
	c-18,90.5-32.7,271.8,0,319s583.5,54.3,663.1,18s-18-380.6-50.7-431.4C992.8,464.4,886.1,368.6,843.9,331.4z"/>
<path class="st0" d="M638.7,252.2h186.7c11.9,0,22.3,6,28.6,15.4c28-35.8,73.2-96.8,78.6-123.5c7.9-38.7-30.8-34.9-27-57.8
	c3.8-23.3,11.6-69.5-27-81.1c-38.7-11.6-69.5,19.2-116,0c-46.3-19.2-81.2,19.1-112,50.2c-30.8,30.8-57.8,19.2-96.5,11.6
	c-38.7-7.9-61.9-3.8-69.5,30.8c-6,26.7,81.7,128.9,122.6,174.8C612.9,260.7,624.8,252.2,638.7,252.2z"/>
<linearGradient id="SVGID_2_" gradientUnits="userSpaceOnUse" x1="685.3892" y1="244.1477" x2="784.9891" y2="335.9477">
	<stop  offset="8.356114e-02" style="stop-color:#12D619"/>
	<stop  offset="1" style="stop-color:#01AE07"/>
</linearGradient>
<path class="st3" d="M638.7,321.7h186.7c10.1,0,18.9-4.4,25.1-11c6-6.3,9.4-14.5,9.4-23.6c0-7.2-2.2-13.8-6-19.5
	c-6.3-9.1-16.7-15.4-28.6-15.4H638.7c-13.8,0-25.8,8.2-31.4,20.1c-2.2,4.4-3.5,9.4-3.5,14.8c0,8.2,2.8,15.4,7.5,21.4
	C617.9,316.4,627.7,321.7,638.7,321.7z"/>
<path class="st4" d="M717.9,818.9c-12.1,0-24.9-1.3-38.3-3.4c-13.5-2-26.3-4.7-37.7-9.4c-11.4-4-20.9-9.4-28.9-15.5
	c-7.4-6.1-11.4-13.5-11.4-22.2c0-4,0.6-7.4,2.7-11.4c1.3-4,3.4-7.4,6.7-10.8c3.4-3.4,7.4-6.1,12.8-8.1c4.7-2,10.8-3.4,17.5-3.4
	c6.1,0,12.1,0.7,17.5,2.7c5.4,1.3,10.8,3.4,16.8,4.7c6.1,2,12.8,4,19.5,6.1c6.7,2,14.1,3.4,22.9,3.4v-78.7
	c-13.4-4-26.9-8.8-41.1-13.5c-14.1-4.7-26.2-10.8-37-18.9c-11.4-7.4-20.2-16.8-26.9-28.3c-7.4-11.4-10.8-26.2-10.8-43.8
	c0-30.3,10.1-53.8,31-71.3s49.1-26.9,84.8-28.9V442c0-4,1.3-7.4,4.7-10.1c2.7-2,6.1-3.4,10.1-3.4s7.4,1.3,10.8,3.4
	c2.7,2.7,4,6.1,4,10.1v26.2c10.1,0.7,20.2,2,31.6,3.4c12.1,2,22.2,4.7,32.3,8.1c10.1,4,18.9,8.7,25.6,14.1
	c6.7,6.1,10.1,13.5,10.1,22.2c0,9.4-4,16.8-11.4,23.6c-7.4,6.1-16.2,9.4-27.6,9.4c-5.4,0-10.1-0.7-14.1-2s-8.1-2.7-12.1-4
	c-4.1-1.3-8.8-2.7-14.1-4c-5.4-1.3-12.1-2.7-20.2-3.4v74c14.8,4.7,28.9,9.4,43.1,14.1c14.1,4.7,26.3,10.8,37,18.2
	c10.8,7.4,19.5,16.2,25.6,27.6c6.7,10.8,10.1,24.2,10.1,41.7c0,15.5-2.7,29.6-8.7,42.4c-6.1,12.8-14.1,23.6-24.2,32.3
	c-10.1,8.7-22.9,16.1-37,21.5s-28.9,8.7-45.8,10.8v26.9c0,3.4-1.3,6.7-4,9.4c-3.4,2.7-6.7,4-10.8,4c-4,0-7.4-1.3-10.1-4
	c-3.4-2.7-4.7-6.1-4.7-9.4L717.9,818.9L717.9,818.9z M781.8,716c0-9.4-2.7-16.8-7.4-20.9c-5.4-4-10.1-6.7-15.5-8.8l-11.5-4.7v68.6
	c10.8-2,19.5-6.1,25.6-12.1C779.1,732.8,781.8,724.7,781.8,716L781.8,716z M717.9,599.5v-63.3c-9.4,1.3-18.2,4-24.9,8.8
	c-6.7,4.7-10.1,11.4-10.1,20.9c0,9.4,2.7,16.2,8.1,20.2c5.4,4,10.8,6.7,15.5,8.8L717.9,599.5z"/>
<path class="st1" d="M643.7,235.7h166.1c10.6,0,19.9,4.8,25.4,12.5c24.9-29.1,65.1-78.5,69.9-100.2c7-31.4-27.4-28.3-24-46.9
	c3.4-18.9,10.3-56.4-24-65.8c-34.4-9.4-61.8,15.6-103.2,0c-41.1-15.6-72.1,15.6-99.5,40.8c-27.4,25-51.4,15.6-85.8,9.4
	c-34.4-6.4-55.1-3.1-61.8,25c-5.3,21.7,72.7,104.6,109,141.8C620.7,242.5,631.4,235.7,643.7,235.7z"/>
<polygon class="st5" points="475.7,382 454.3,345.1 435.1,367 "/>
<polygon class="st4" points="1043.4,442.9 1247.3,455.4 1208.8,287 "/>
<polygon class="st5" points="1145.4,743.1 1228.6,835.5 1270.2,761.5 "/>
<polygon class="st4" points="334.9,736.5 167.9,738.8 209.6,873.8 "/>
<polygon class="st4" points="378.3,503.5 262.9,422.9 239.9,490.7 "/>
</svg>
