<?xml version="1.0" encoding="utf-8"?>
<!-- Generator: Adobe Illustrator 24.1.2, SVG Export Plug-In . SVG Version: 6.00 Build 0)  -->
<svg version="1.1" id="master-artboard" xmlns="http://www.w3.org/2000/svg" xmlns:xlink="http://www.w3.org/1999/xlink" x="0px"
	 y="0px" viewBox="0 0 841.9 595.3" style="enable-background:new 0 0 841.9 595.3;" xml:space="preserve">
<style type="text/css">
	.st0{fill:#484848;}
	.st1{fill:#12D619;}
	.st2{fill:none;stroke:#01AE07;stroke-width:6;stroke-miterlimit:10;}
	.st3{fill:#01AE07;}
	.st4{fill:none;stroke:#484848;stroke-width:9;stroke-miterlimit:10;}
	.st5{fill:#01AE07;stroke:#484848;stroke-width:9;stroke-miterlimit:10;}
	.st6{fill:#FFFFFF;}
	.st7{fill:none;stroke:#484848;stroke-width:9;stroke-linecap:round;stroke-miterlimit:10;}
</style>
<path class="st0" d="M321.8,87.7c-0.6-0.1-1-0.4-1.6-0.8l-31.7-28.2c-18.8-16.8-41.5-29.1-67.2-36.4l-17.1-4.9
	c-1.7-0.6-2.6-2.3-2.3-4l1.9-7.2c0.3-1.5,1.6-2.3,3.2-2.5c17.2-0.2,33.8,1.4,49.7,4.7c23.3,4.8,44.7,13.5,63.5,25.4L350,52.9
	c0.8,0.6,1.3,1.4,1.5,2.3c0,0.9-0.2,2-0.8,2.7l-25.9,29c-0.6,0.6-1.3,1.1-2.2,1.1C322.3,87.8,322,87.7,321.8,87.7z M209.2,12l13.9,4
	c26.7,7.8,50.2,20.4,69.8,37.9L322.1,80l21-23.8l-26.4-17.1C287,20,250.2,10,209.6,10L209.2,12z"/>
<path class="st0" d="M443.8,230.5c-1.1-0.2-1.8-0.8-2.3-2l-6.9-16.4c-10.3-24.7-25.1-45.8-43.9-62.6L359,121.3
	c-0.6-0.6-1.1-1.3-1.1-2.2c0-0.9,0.4-1.7,0.9-2.3l25.9-29c0.6-0.8,1.5-1,2.4-1.1c0.9,0,1.9,0.4,2.4,1.2l22.4,27.4
	c23.5,28.7,38.5,66.4,42.9,108.8c0.2,1.4-0.6,2.8-2,3.4l-6.8,2.8C445.1,230.6,444.5,230.7,443.8,230.5z M365.6,118.6l29.2,26.1
	c19.6,17.4,34.9,39.4,45.7,65l5.5,13.4l1.7-0.8c-4.6-40.2-18.9-75.8-41.2-102.9L386.6,95L365.6,118.6z"/>
<path class="st0" d="M33.4,460.5L33.4,460.5c-2.8-0.6-5.4-1.8-7.5-3.8c-3.2-2.9-5.1-6.8-5.5-11.2c-0.2-4.3,1.1-8.5,4-11.7l296.5-333
	c0.6-0.6,1.3-1.1,2.2-1.1c0.9,0,1.7,0.4,2.3,0.7l19.2,17.1c1.3,1.2,1.6,3.2,0.2,4.5L48.3,455C44.9,459.8,39,461.7,33.4,460.5z
	 M323.7,107.7L29.3,438.2c-1.7,1.9-2.5,4.4-2.3,6.9s1.2,4.9,3.3,6.7c1.3,1.2,2.7,1.9,4.4,2.3c3.4,0.7,6.8-0.4,9.1-3L338,120.5
	L323.7,107.7z"/>
<path class="st0" d="M351.8,131.8c-0.6-0.1-1-0.4-1.4-0.7L312,96.8c-0.6-0.6-1.1-1.3-1.1-2.2c0-0.9,0.4-1.7,0.9-2.3l43-48.2
	c1.2-1.3,3.2-1.6,4.5-0.2l38.2,34.2c0.6,0.6,1.1,1.3,1.1,2.2c0,0.9-0.4,1.7-0.9,2.3l-43,48.2C354,131.8,352.8,132,351.8,131.8z
	 M318.7,94.2l33.5,29.9l38.6-43.3l-33.6-29.7L318.7,94.2z"/>
<polygon class="st1" points="462.9,221.5 485.3,177.3 510.8,201 "/>
<polygon class="st2" points="434.1,239.3 414.2,269.2 397.9,250.1 "/>
<polygon class="st3" points="440.9,234.3 414.2,274.4 392.4,248.7 "/>
<polygon class="st1" points="448.9,242.8 453.2,271 433.3,268.5 "/>
<path class="st4" d="M766.5,571.1H594.1c-14.5,0-26.3-11.8-26.3-26.3v-222c0-14.5,11.8-26.3,26.3-26.3h172.4
	c14.5,0,26.3,11.8,26.3,26.3v222C792.8,559.4,781,571.1,766.5,571.1z"/>
<rect x="632.8" y="284.2" class="st4" width="94.9" height="12.2"/>
<path class="st5" d="M714,296.5h-67.5c-7.6,0-13.7-6.1-13.7-13.7v-3.7c0-7.6,6.1-13.7,13.7-13.7H714c7.6,0,13.7,6.1,13.7,13.7v3.7
	C727.7,290.3,721.6,296.5,714,296.5z"/>
<path class="st6" d="M689.2,289.5h-17.9c-4.8,0-8.8-3.9-8.8-8.8l0,0c0-4.8,3.9-8.8,8.8-8.8h17.9c4.8,0,8.8,3.9,8.8,8.8l0,0
	C698,285.6,694.1,289.5,689.2,289.5z"/>
<line class="st7" x1="826.8" y1="27.9" x2="101.4" y2="589.5"/>
<polygon class="st3" points="458.1,232 502.7,250.2 481.8,276.7 "/>
<polygon class="st1" points="641.8,506.6 647.4,501.5 679,535.2 780,440.2 785.4,445.9 678.5,546.3 "/>
<polygon class="st1" points="552.6,528.6 517.8,563.9 500.7,533.5 "/>
<polygon class="st3" points="554.9,323.6 509.4,307.9 528.8,280.3 "/>
<polygon class="st1" points="528.9,350.3 500.8,345.4 509.6,327.3 "/>
<polygon class="st3" points="544,488.6 511.4,501 509.4,476.7 "/>
<rect x="584.7" y="323.6" class="st0" width="59.4" height="6.7"/>
<rect x="584.7" y="341.5" class="st0" width="153.6" height="6.7"/>
<rect x="584.7" y="351.5" class="st0" width="127.3" height="6.7"/>
<rect x="584.7" y="361.5" class="st0" width="139.2" height="6.7"/>
<rect x="584.7" y="371" class="st0" width="153.6" height="6.7"/>
<rect x="584.7" y="381" class="st0" width="149.2" height="6.7"/>
<rect x="584.7" y="391" class="st0" width="139.2" height="6.7"/>
<rect x="584.7" y="411" class="st0" width="28.8" height="6.7"/>
<rect x="584.7" y="428.8" class="st0" width="153.6" height="6.7"/>
<rect x="584.7" y="438.8" class="st0" width="127.3" height="6.7"/>
<rect x="315.8" y="83.9" transform="matrix(0.9856 -0.1688 0.1688 0.9856 -9.6359 61.0708)" class="st0" width="76.9" height="6.7"/>
<rect x="315.8" y="84.7" transform="matrix(9.304665e-02 -0.9957 0.9957 9.304665e-02 233.7246 432.5851)" class="st0" width="76.9" height="6.7"/>
</svg>
